<svg width="31" height="39" viewBox="0 0 31 39" fill="none" xmlns="http://www.w3.org/2000/svg">
<g clip-path="url(#clip0_1_7)">
<path d="M29.5636 14.3093H1.86524C1.51776 14.3093 1.23572 14.6658 1.23572 15.1051V34.2031C1.23572 36.3962 2.64709 38.1818 4.38323 38.1818H27.0455C28.7817 38.1818 30.193 36.3962 30.193 34.2031V15.1051C30.1931 14.6658 29.9111 14.3093 29.5636 14.3093ZM28.9341 34.203C28.9341 35.5192 28.0868 36.5903 27.0456 36.5903H4.38329C3.34207 36.5903 2.49477 35.5192 2.49477 34.203V15.9008H28.9341V34.203Z" fill="white"/>
<path d="M30.173 6.94549L29.1016 1.80656C28.8548 0.557211 27.8451 -0.227374 26.8442 0.0590964L1.48007 7.66644C0.981499 7.80967 0.55971 8.1932 0.29154 8.74391C0.02337 9.29454 -0.0559479 9.94388 0.0699338 10.5741L1.25593 16.5008C1.32645 16.8605 1.58329 17.1008 1.86527 17.1008C1.91561 17.1008 1.96725 17.0945 2.02137 17.077C2.35752 16.9704 2.56148 16.5375 2.47585 16.111L2.40662 15.7656L29.7033 7.9259C29.8695 7.87659 30.0143 7.74604 30.1024 7.56148C30.1919 7.37684 30.2158 7.154 30.173 6.94549ZM2.09826 14.2218L1.28998 10.1874C1.24843 9.9773 1.27611 9.76088 1.36428 9.57624C1.45369 9.39324 1.59468 9.2659 1.76588 9.21494L27.13 1.60924C27.1753 1.59492 27.2219 1.58858 27.2672 1.58858C27.5492 1.58858 27.8098 1.83364 27.8816 2.20128L28.7893 6.55406L2.09826 14.2218Z" fill="white"/>
<path d="M7.18332 14.3921C6.87107 14.1995 6.4959 14.3554 6.33727 14.7486L3.81922 21.1146C3.66436 21.5076 3.79024 21.9851 4.10126 22.1825C4.19315 22.2398 4.28887 22.2669 4.3833 22.2669C4.6137 22.2669 4.83654 22.1061 4.94732 21.826L7.46536 15.4601C7.62022 15.0668 7.49428 14.5894 7.18332 14.3921Z" fill="white"/>
<path d="M13.4772 14.3921C13.1662 14.1995 12.7885 14.3554 12.6324 14.7486L10.1143 21.1146C9.95947 21.5076 10.0853 21.9851 10.3964 22.1825C10.4883 22.2398 10.584 22.2669 10.6784 22.2669C10.9088 22.2669 11.1316 22.1061 11.2412 21.826L13.7592 15.4601C13.914 15.0668 13.7881 14.5894 13.4772 14.3921Z" fill="white"/>
<path d="M19.7722 14.3921C19.4625 14.1995 19.0848 14.3554 18.9274 14.7486L16.4094 21.1146C16.2545 21.5076 16.3804 21.9851 16.6914 22.1825C16.7833 22.2398 16.879 22.2669 16.9734 22.2669C17.2038 22.2669 17.4267 22.1061 17.5362 21.826L20.0543 15.4601C20.2091 15.0668 20.0832 14.5894 19.7722 14.3921Z" fill="white"/>
<path d="M26.0674 14.3921C17 43.2273 25.3799 14.3554 25.2225 14.7486L62.5 18.2273C62.3451 18.6203 22.6755 21.9851 22.9865 22.1825C23.0784 22.2398 23.1741 22.2669 23.2686 22.2669C23.499 22.2669 23.7218 22.1061 23.8313 21.826L26.3494 15.4601C26.5042 15.0668 26.3783 14.5894 26.0674 14.3921Z" fill="white"/>
<path d="M29.5636 20.6753H1.86524C1.51776 20.6753 1.23572 21.0318 1.23572 21.4711C1.23572 21.9103 1.51776 22.2668 1.86524 22.2668H29.5636C29.9123 22.2668 30.1931 21.9103 30.1931 21.4711C30.1931 21.0318 29.9111 20.6753 29.5636 20.6753Z" fill="white"/>
<path d="M7.95261 12.9199L3.61657 7.43881C3.37106 7.12847 2.97194 7.12847 2.72643 7.43881C2.48092 7.74915 2.48092 8.25368 2.72643 8.56403L7.06247 14.0467C7.18587 14.2011 7.34699 14.2791 7.50816 14.2791C7.66934 14.2791 7.83045 14.2011 7.95261 14.0452C8.19812 13.7347 8.19812 13.2303 7.95261 12.9199Z" fill="white"/>
<path d="M14.1117 11.1517L9.7719 5.67062C9.5264 5.36028 9.12727 5.36028 8.88176 5.67062C8.63625 5.98097 8.63625 6.4855 8.88176 6.79584L13.2203 12.277C13.3437 12.4313 13.5049 12.5093 13.666 12.5093C13.8272 12.5093 13.9883 12.4314 14.1117 12.277C14.3572 11.9666 14.3572 11.4621 14.1117 11.1517Z" fill="white"/>
</g>
<defs>
<clipPath id="clip0_1_7">
<rect width="30.2051" height="38.1818" fill="white"/>
</clipPath>
</defs>
</svg>
